<?xml version="1.0" encoding="UTF-8" standalone="no"?>
<!DOCTYPE svg PUBLIC "-//W3C//DTD SVG 1.1//EN" "http://www.w3.org/Graphics/SVG/1.1/DTD/svg11.dtd">
<svg width="100%" height="100%" viewBox="0 0 833 833" version="1.1" xmlns="http://www.w3.org/2000/svg" xmlns:xlink="http://www.w3.org/1999/xlink" xml:space="preserve" xmlns:serif="http://www.serif.com/" style="fill-rule:evenodd;clip-rule:evenodd;stroke-linejoin:round;stroke-miterlimit:2;">
    <g transform="matrix(1,0,0,1,-65,-55)">
        <g>
            <g transform="matrix(0.750292,0,0,0.750292,-44.9182,0.416359)">
                <rect x="147.161" y="73.729" width="329.569" height="329.569" style="fill:rgb(7,26,0);"/>
            </g>
            <g transform="matrix(0.750292,0,0,0.750292,-44.9182,292.716)">
                <rect x="147.161" y="73.729" width="329.569" height="329.569" style="fill:rgb(7,26,0);"/>
            </g>
            <g transform="matrix(0.750292,0,0,0.750292,-44.9262,584.994)">
                <rect x="147.161" y="73.729" width="329.569" height="329.569" style="fill:rgb(7,26,0);"/>
            </g>
            <g transform="matrix(0.750292,0,0,0.750292,247.347,0.416359)">
                <rect x="147.161" y="73.729" width="329.569" height="329.569" style="fill:rgb(7,26,0);"/>
            </g>
            <g transform="matrix(0.750292,0,0,0.750292,247.347,292.716)">
                <rect x="147.161" y="73.729" width="329.569" height="329.569" style="fill:rgb(7,26,0);"/>
            </g>
            <g transform="matrix(0.750292,0,0,0.750292,247.339,584.994)">
                <rect x="147.161" y="73.729" width="329.569" height="329.569" style="fill:rgb(7,26,0);"/>
            </g>
            <g transform="matrix(0.750292,0,0,0.750292,539.629,0.416359)">
                <rect x="147.161" y="73.729" width="329.569" height="329.569" style="fill:rgb(7,26,0);"/>
            </g>
            <g transform="matrix(0.750292,0,0,0.750292,539.629,292.716)">
                <rect x="147.161" y="73.729" width="329.569" height="329.569" style="fill:rgb(7,26,0);"/>
            </g>
            <g transform="matrix(0.750292,0,0,0.750292,539.621,584.994)">
                <rect x="147.161" y="73.729" width="329.569" height="329.569" style="fill:rgb(7,26,0);"/>
            </g>
        </g>
    </g>
</svg>
