<svg xmlns="http://www.w3.org/2000/svg" width="376.531" height="89.828" viewBox="0 0 376.531 89.828">
  <g id="Group_29" data-name="Group 29" transform="translate(-161 -22)">
    <path id="Union_2" data-name="Union 2" d="M104.391,89.781l-1.078-.2V87.234l.781.063a3.845,3.845,0,0,0,2.289-.594,4.3,4.3,0,0,0,1.352-2.172l.641-1.719-6.032-16.719H105.5l4.219,12.672,3.938-12.672h3.093l-6.8,19.517q-1.578,4.219-5.016,4.218Zm261.391-.906a6.164,6.164,0,0,1-2.672-2.14L364.61,85a5.651,5.651,0,0,0,4.547,2.3,4.428,4.428,0,0,0,3.289-1.188,4.539,4.539,0,0,0,1.18-3.343V81.312a5.94,5.94,0,0,1-4.735,2,5.774,5.774,0,0,1-4.8-2.39,10.446,10.446,0,0,1-1.836-6.515,9.935,9.935,0,0,1,1.828-6.289,6.3,6.3,0,0,1,9.672-.148l.14-1.876h2.641v16.5a6.876,6.876,0,0,1-1.945,5.171,7.178,7.178,0,0,1-5.227,1.891A8.688,8.688,0,0,1,365.782,88.875Zm.563-19a8.253,8.253,0,0,0-1.188,4.859,7.584,7.584,0,0,0,1.172,4.493,3.809,3.809,0,0,0,3.281,1.633,4.234,4.234,0,0,0,4.016-2.485V70.656a4.284,4.284,0,0,0-3.984-2.422A3.841,3.841,0,0,0,366.344,69.875ZM51.978,69.142A17.149,17.149,0,1,1,69.127,86.29,17.149,17.149,0,0,1,51.978,69.142Zm-37.274,0A17.149,17.149,0,1,1,31.853,86.29,17.149,17.149,0,0,1,14.7,69.142Zm331.351,11.78a9.15,9.15,0,0,1-2.133-6.328v-.2a9.99,9.99,0,0,1,.977-4.468,7.294,7.294,0,0,1,2.719-3.063,7.409,7.409,0,0,1,3.977-1.078,7.129,7.129,0,0,1,5.585,2.391,9.2,9.2,0,0,1,2.133,6.358v.2a10.074,10.074,0,0,1-.945,4.43,7.175,7.175,0,0,1-2.7,3.055,7.487,7.487,0,0,1-4.039,1.093A7.111,7.111,0,0,1,346.055,80.922Zm2.086-11.062a7.85,7.85,0,0,0-1.312,4.874,7.236,7.236,0,0,0,1.3,4.516,4.422,4.422,0,0,0,6.992-.023,7.91,7.91,0,0,0,1.3-4.837,7.217,7.217,0,0,0-1.32-4.507,4.2,4.2,0,0,0-3.507-1.727A4.15,4.15,0,0,0,348.141,69.86Zm-42.9,11.148A9.184,9.184,0,0,1,303.2,74.7v-.484a10.181,10.181,0,0,1,.906-4.39,6.9,6.9,0,0,1,2.6-2.984,7.391,7.391,0,0,1,4.008-1.063,6.779,6.779,0,0,1,4.727,1.7,6.089,6.089,0,0,1,2.008,4.422h-2.735a3.98,3.98,0,0,0-1.242-2.7,3.864,3.864,0,0,0-2.758-1.055,4.047,4.047,0,0,0-3.414,1.586,7.45,7.45,0,0,0-1.211,4.586v.546a7.3,7.3,0,0,0,1.2,4.5,4.065,4.065,0,0,0,3.437,1.579,4.163,4.163,0,0,0,2.7-.938,3.3,3.3,0,0,0,1.281-2.344h2.735a5.25,5.25,0,0,1-1,2.766,6.585,6.585,0,0,1-2.462,2.093,7.1,7.1,0,0,1-3.258.781A6.964,6.964,0,0,1,305.242,81.008Zm-17.578.89a4.572,4.572,0,0,1-1.6-3.586,4.779,4.779,0,0,1,2.008-4.1,9.46,9.46,0,0,1,5.648-1.462h2.813V71.422a3.246,3.246,0,0,0-.906-2.415,3.644,3.644,0,0,0-2.672-.9,4.211,4.211,0,0,0-2.593.781,2.3,2.3,0,0,0-1.048,1.891h-2.906a3.991,3.991,0,0,1,.9-2.445,6.134,6.134,0,0,1,2.438-1.868,8.2,8.2,0,0,1,3.382-.688,6.68,6.68,0,0,1,4.578,1.462,5.268,5.268,0,0,1,1.719,4.023v7.781a9.507,9.507,0,0,0,.594,3.7V83h-3.031a6.049,6.049,0,0,1-.407-1.781,6.448,6.448,0,0,1-4.812,2.093A5.964,5.964,0,0,1,287.664,81.9Zm1.289-3.992a2.635,2.635,0,0,0,.906,2.126,3.484,3.484,0,0,0,2.328.765,5.075,5.075,0,0,0,2.578-.7,4.254,4.254,0,0,0,1.766-1.828V74.8h-2.265Q288.954,74.8,288.953,77.906Zm-17.563,3.141L271.25,83h-2.657V59h2.891v8.952a5.864,5.864,0,0,1,4.828-2.172,5.727,5.727,0,0,1,4.836,2.328,10.356,10.356,0,0,1,1.758,6.375v.25a10.05,10.05,0,0,1-1.781,6.227,5.692,5.692,0,0,1-4.781,2.351A5.894,5.894,0,0,1,271.391,81.047Zm.094-10.156V78.2a4.363,4.363,0,0,0,4.141,2.657,3.757,3.757,0,0,0,3.235-1.609,8.314,8.314,0,0,0,1.156-4.844,7.811,7.811,0,0,0-1.14-4.563,3.776,3.776,0,0,0-3.281-1.609A4.245,4.245,0,0,0,271.484,70.89ZM245.211,81.008a9.18,9.18,0,0,1-2.039-6.305v-.484a10.181,10.181,0,0,1,.906-4.39,6.9,6.9,0,0,1,2.6-2.984,7.389,7.389,0,0,1,4.008-1.063,6.777,6.777,0,0,1,4.726,1.7,6.082,6.082,0,0,1,2.008,4.422h-2.734a3.984,3.984,0,0,0-1.242-2.7,3.866,3.866,0,0,0-2.758-1.055,4.048,4.048,0,0,0-3.415,1.586,7.45,7.45,0,0,0-1.21,4.586v.546a7.294,7.294,0,0,0,1.2,4.5,4.065,4.065,0,0,0,3.437,1.579,4.159,4.159,0,0,0,2.7-.938,3.294,3.294,0,0,0,1.282-2.344h2.734a5.242,5.242,0,0,1-1,2.766,6.581,6.581,0,0,1-2.461,2.093,7.1,7.1,0,0,1-3.258.781A6.963,6.963,0,0,1,245.211,81.008Zm-22.93,1.586a5.851,5.851,0,0,1-2.445-2.008,4.84,4.84,0,0,1-.883-2.789h2.891a3,3,0,0,0,1.164,2.3,4.517,4.517,0,0,0,2.867.851,4.664,4.664,0,0,0,2.633-.664,2.04,2.04,0,0,0,.992-1.773,2.128,2.128,0,0,0-.883-1.821,8.5,8.5,0,0,0-3.078-1.117,14.6,14.6,0,0,1-3.485-1.125,4.97,4.97,0,0,1-1.906-1.562,3.74,3.74,0,0,1-.617-2.156,4.386,4.386,0,0,1,1.758-3.516,6.869,6.869,0,0,1,4.492-1.437,7.06,7.06,0,0,1,4.664,1.485,4.711,4.711,0,0,1,1.789,3.8h-2.906a2.609,2.609,0,0,0-1.008-2.047,3.773,3.773,0,0,0-2.539-.859,3.954,3.954,0,0,0-2.469.688,2.164,2.164,0,0,0-.891,1.8,1.752,1.752,0,0,0,.829,1.578,10.169,10.169,0,0,0,2.992,1.016,15.6,15.6,0,0,1,3.508,1.156,5.12,5.12,0,0,1,1.992,1.617,3.972,3.972,0,0,1,.649,2.3,4.327,4.327,0,0,1-1.813,3.632,7.6,7.6,0,0,1-4.7,1.367A8.522,8.522,0,0,1,222.281,82.594Zm-18.9-.851a6.8,6.8,0,0,1-1.43-4.648v-11h2.891V77.016q0,3.843,3.125,3.844,3.313,0,4.406-2.469v-12.3h2.891V83h-2.75l-.062-1.671a6.141,6.141,0,0,1-4.953,1.984A5.255,5.255,0,0,1,203.383,81.743Zm-64.437,0a6.8,6.8,0,0,1-1.43-4.648v-11h2.891V77.016q0,3.843,3.125,3.844,3.313,0,4.406-2.469v-12.3h2.891V83h-2.75l-.062-1.671a6.143,6.143,0,0,1-4.954,1.984A5.254,5.254,0,0,1,138.946,81.743Zm-18.25-.821a9.15,9.15,0,0,1-2.133-6.328v-.2a9.99,9.99,0,0,1,.977-4.468,7.288,7.288,0,0,1,2.719-3.063,7.406,7.406,0,0,1,3.976-1.078,7.13,7.13,0,0,1,5.586,2.391,9.2,9.2,0,0,1,2.133,6.358v.2a10.061,10.061,0,0,1-.946,4.43,7.173,7.173,0,0,1-2.7,3.055,7.487,7.487,0,0,1-4.039,1.093A7.111,7.111,0,0,1,120.7,80.922Zm2.086-11.062a7.844,7.844,0,0,0-1.313,4.874,7.237,7.237,0,0,0,1.305,4.516,4.422,4.422,0,0,0,6.992-.023,7.91,7.91,0,0,0,1.3-4.837,7.217,7.217,0,0,0-1.32-4.507,4.2,4.2,0,0,0-3.508-1.727A4.149,4.149,0,0,0,122.782,69.86ZM337.172,83V59h2.891V83Zm-5.859,0-5.891-7.828-1.813,1.891V83h-2.891V59h2.891V73.516l1.547-1.859,5.265-5.563h3.516l-6.578,7.063L334.7,83Zm-94.906,0V66.093h2.89V83Zm-41.641,0V71.843a3.881,3.881,0,0,0-.828-2.711,3.647,3.647,0,0,0-2.781-.9,3.833,3.833,0,0,0-2.672.961,3.894,3.894,0,0,0-1.234,2.586V83h-2.907V71.922q0-3.687-3.609-3.687a3.868,3.868,0,0,0-3.891,2.422V83h-2.891V66.093h2.734l.078,1.876a6.243,6.243,0,0,1,5.016-2.188q3.546,0,4.829,2.719a6.4,6.4,0,0,1,2.2-1.968,6.48,6.48,0,0,1,3.2-.751q5.563,0,5.656,5.891V83Zm-39.547,0V66.093h2.813l.047,1.954a4.5,4.5,0,0,1,4.032-2.266,2.951,2.951,0,0,1,1.281.219v2.687a8.668,8.668,0,0,0-1.422-.109A3.809,3.809,0,0,0,158.109,71V83ZM236.6,62.781a1.665,1.665,0,0,1-.43-1.172,1.724,1.724,0,0,1,.43-1.188,1.615,1.615,0,0,1,1.274-.484,1.639,1.639,0,0,1,1.281.484,1.709,1.709,0,0,1,.437,1.188,1.651,1.651,0,0,1-.437,1.172,1.668,1.668,0,0,1-1.281.469A1.643,1.643,0,0,1,236.6,62.781Zm28.214-12.4a3.965,3.965,0,0,1-1.372-1.2,2.739,2.739,0,0,1-.49-1.592,3.257,3.257,0,0,1,.588-2.01,1.864,1.864,0,0,1,1.568-.784,4.552,4.552,0,0,1,1.274.221q.734.221,1.519.515a29.183,29.183,0,0,0,2.891.931,11.294,11.294,0,0,0,2.842.343,6.617,6.617,0,0,0,4.655-1.42,5.636,5.636,0,0,0,1.519-4.313V38.424a7.269,7.269,0,0,1-3.087,2.94,9.772,9.772,0,0,1-4.606,1.078,10.526,10.526,0,0,1-5.562-1.47,10.073,10.073,0,0,1-3.8-4.189,13.806,13.806,0,0,1-1.373-6.3,13.805,13.805,0,0,1,1.373-6.3,10.239,10.239,0,0,1,3.8-4.214,10.387,10.387,0,0,1,5.562-1.494,9.707,9.707,0,0,1,4.532,1.053,7.464,7.464,0,0,1,3.111,2.916v-.49a3.165,3.165,0,0,1,1-2.474,3.832,3.832,0,0,1,2.67-.907,3.714,3.714,0,0,1,2.671.956,3.323,3.323,0,0,1,1,2.524V40.532q0,5.831-3.381,8.82t-9.9,2.989A18.425,18.425,0,0,1,264.816,50.38Zm5.389-24.574a6.9,6.9,0,0,0-1.47,4.679,6.8,6.8,0,0,0,1.47,4.656,5.143,5.143,0,0,0,4.067,1.666,5.067,5.067,0,0,0,4.043-1.666,6.876,6.876,0,0,0,1.445-4.656,6.972,6.972,0,0,0-1.445-4.679,5.033,5.033,0,0,0-4.043-1.69A5.107,5.107,0,0,0,270.205,25.807ZM51.978,31.855A17.149,17.149,0,1,1,69.127,49,17.149,17.149,0,0,1,51.978,31.855ZM238.6,41.977a10.83,10.83,0,0,1-4.459-4.361,13.443,13.443,0,0,1-1.568-6.639,13.443,13.443,0,0,1,1.568-6.639A10.676,10.676,0,0,1,238.6,20a15.6,15.6,0,0,1,13.426,0,10.674,10.674,0,0,1,4.459,4.337,13.443,13.443,0,0,1,1.568,6.639,13.443,13.443,0,0,1-1.568,6.639,10.828,10.828,0,0,1-4.459,4.361,15.37,15.37,0,0,1-13.426,0Zm1.323-11q0,6.909,5.39,6.909t5.39-6.909a8.116,8.116,0,0,0-1.4-5.194,4.854,4.854,0,0,0-3.993-1.715Q239.923,24.067,239.924,30.976ZM173.724,42a10.388,10.388,0,0,1-4.288-4.312,13.721,13.721,0,0,1-1.494-6.566,13.45,13.45,0,0,1,1.592-6.639,11.061,11.061,0,0,1,4.484-4.434,13.751,13.751,0,0,1,6.664-1.568,15.005,15.005,0,0,1,3.945.538,13.185,13.185,0,0,1,3.552,1.519,3.019,3.019,0,0,1,1.519,2.744,3.457,3.457,0,0,1-.588,2.083,1.844,1.844,0,0,1-1.568.808,3.251,3.251,0,0,1-1.2-.221q-.564-.22-1.495-.661a15.433,15.433,0,0,0-1.837-.833,5.353,5.353,0,0,0-1.838-.294,5.136,5.136,0,0,0-4.189,1.74,7.756,7.756,0,0,0-1.445,5.071,7.86,7.86,0,0,0,1.445,5.1,5.1,5.1,0,0,0,4.189,1.764,5.584,5.584,0,0,0,1.813-.269,14.579,14.579,0,0,0,1.912-.858q.93-.441,1.47-.662a3.082,3.082,0,0,1,1.176-.22,1.849,1.849,0,0,1,1.544.833,3.471,3.471,0,0,1,.612,2.108,2.908,2.908,0,0,1-1.519,2.695,13.008,13.008,0,0,1-3.625,1.519,16.97,16.97,0,0,1-4.313.539A13.435,13.435,0,0,1,173.724,42Zm-28.052.539a7.767,7.767,0,0,1-3.137-2.744,7.021,7.021,0,0,1-1.151-3.92,6.053,6.053,0,0,1,1.347-4.164,8.044,8.044,0,0,1,4.337-2.2,38.241,38.241,0,0,1,8.183-.687h1.273v-.882a4.167,4.167,0,0,0-.906-2.989,4.084,4.084,0,0,0-3.013-.931,19.256,19.256,0,0,0-6.076,1.47,4.625,4.625,0,0,1-1.912.539,2.122,2.122,0,0,1-1.714-.76,2.982,2.982,0,0,1-.637-1.984,2.776,2.776,0,0,1,.441-1.617,4.082,4.082,0,0,1,1.421-1.175,15.878,15.878,0,0,1,4.189-1.471,22.877,22.877,0,0,1,4.875-.538q5.292,0,7.84,2.572t2.548,7.864V39.992a3.36,3.36,0,0,1-.931,2.524,3.569,3.569,0,0,1-2.6.906,3.412,3.412,0,0,1-2.524-.956,3.35,3.35,0,0,1-.955-2.474V39.65a5.771,5.771,0,0,1-2.45,2.841,7.657,7.657,0,0,1-4.018,1.03A9.876,9.876,0,0,1,145.672,42.54Zm4.459-9.506a2.3,2.3,0,0,0-1.592,2.3,2.931,2.931,0,0,0,.906,2.23,3.185,3.185,0,0,0,2.279.857,4.491,4.491,0,0,0,3.479-1.445,5.334,5.334,0,0,0,1.323-3.749V32.4h-.832A16.743,16.743,0,0,0,150.131,33.035Zm71.59,9.506a3.194,3.194,0,0,1-1.054-2.6V11.817a3.192,3.192,0,0,1,1.054-2.6,4.014,4.014,0,0,1,2.67-.882,3.944,3.944,0,0,1,2.622.882,3.194,3.194,0,0,1,1.053,2.6V39.943a3.2,3.2,0,0,1-1.053,2.6,3.949,3.949,0,0,1-2.622.882A4.018,4.018,0,0,1,221.72,42.54Zm-97.951,0a3.2,3.2,0,0,1-1.053-2.6V21.96a3.048,3.048,0,0,1,1.077-2.5,3.974,3.974,0,0,1,2.6-.882,3.587,3.587,0,0,1,2.45.858,2.993,2.993,0,0,1,.98,2.377v1.323a6.814,6.814,0,0,1,2.67-3.235,8.29,8.29,0,0,1,3.9-1.274l.686-.049a3.063,3.063,0,0,1,2.327.661,2.888,2.888,0,0,1,.858,2.279,3.272,3.272,0,0,1-.784,2.4,4.568,4.568,0,0,1-2.794.98l-1.47.147a5.576,5.576,0,0,0-3.9,1.764,5.768,5.768,0,0,0-1.2,3.773v9.359a3.194,3.194,0,0,1-1.054,2.6,3.946,3.946,0,0,1-2.622.882A4.022,4.022,0,0,1,123.769,42.54Zm-8.159.833-1.372-.1q-8.575-.686-8.575-8.967v-9.7H103.7a3.685,3.685,0,0,1-2.45-.71,2.528,2.528,0,0,1-.833-2.034,2.587,2.587,0,0,1,.833-2.083,3.685,3.685,0,0,1,2.45-.71h1.96V15.247a3.3,3.3,0,0,1,1-2.548,3.845,3.845,0,0,1,2.72-.931,3.756,3.756,0,0,1,2.695.931,3.347,3.347,0,0,1,.98,2.548v3.822h3.43q3.332,0,3.332,2.793a2.527,2.527,0,0,1-.833,2.034,3.773,3.773,0,0,1-2.5.71h-3.43V34.847a3.223,3.223,0,0,0,.686,2.229,2.874,2.874,0,0,0,2.01.858l1.372.1a3.449,3.449,0,0,1,2.156.735,2.727,2.727,0,0,1-.441,4.018,4.65,4.65,0,0,1-2.56.612Q115.961,43.4,115.61,43.373Zm95.845-1.029L200.723,32.4v7.5a3.194,3.194,0,0,1-1.053,2.6,3.944,3.944,0,0,1-2.622.882,4.014,4.014,0,0,1-2.67-.882,3.192,3.192,0,0,1-1.054-2.6V11.817a3.192,3.192,0,0,1,1.054-2.6,4.014,4.014,0,0,1,2.67-.882,3.944,3.944,0,0,1,2.622.882,3.194,3.194,0,0,1,1.053,2.6V29.359l9.8-9.653a3.29,3.29,0,0,1,4.8-.074,3.212,3.212,0,0,1,1.029,2.377,3.369,3.369,0,0,1-1.127,2.4l-6.517,6.223,7.3,6.762a3.31,3.31,0,0,1,1.127,2.45,3.5,3.5,0,0,1-1,2.451,3.1,3.1,0,0,1-2.327,1.077A3.347,3.347,0,0,1,211.455,42.344ZM0,17.149A17.149,17.149,0,1,1,17.149,34.3,17.149,17.149,0,0,1,0,17.149Z" transform="translate(161 22)" fill="#fffbfc"/>
  </g>
</svg>
