<?xml version="1.0" encoding="UTF-8" standalone="no"?>
<!DOCTYPE svg PUBLIC "-//W3C//DTD SVG 1.1//EN" "http://www.w3.org/Graphics/SVG/1.1/DTD/svg11.dtd">
<svg width="100%" height="100%" viewBox="0 0 552 552" version="1.1" xmlns="http://www.w3.org/2000/svg" xmlns:xlink="http://www.w3.org/1999/xlink" xml:space="preserve" xmlns:serif="http://www.serif.com/" style="fill-rule:evenodd;clip-rule:evenodd;stroke-linecap:round;stroke-linejoin:round;stroke-miterlimit:1.5;">
    <g transform="matrix(1,0,0,1,-306,-184)">
        <g>
            <g transform="matrix(1,0,0,1,-97.9267,-121.84)">
                <path d="M679.871,306.53C831.96,306.53 955.437,430.007 955.437,582.097C955.437,734.186 831.96,857.663 679.871,857.663C527.781,857.663 404.304,734.186 404.304,582.097C404.304,430.007 527.781,306.53 679.871,306.53ZM679.871,378.53C792.222,378.53 883.437,469.745 883.437,582.097C883.437,694.448 792.222,785.663 679.871,785.663C567.519,785.663 476.304,694.448 476.304,582.097C476.304,469.745 567.519,378.53 679.871,378.53Z" style="fill:rgb(255,251,252);"/>
            </g>
            <path d="M476.885,677.926C476.594,674.892 476.46,671.82 476.46,668.717C476.46,610.499 523.726,563.233 581.944,563.233C640.162,563.233 687.428,610.499 687.428,668.717C687.428,671.82 687.294,674.892 687.002,677.926C654.939,692.348 619.371,700.373 581.944,700.373C544.516,700.373 508.949,692.348 476.885,677.926Z" style="fill:rgb(255,251,252);stroke:rgb(255,251,252);stroke-width:26px;"/>
            <g transform="matrix(0.761054,0,0,0.761054,243.914,214.837)">
                <circle cx="444.16" cy="322.473" r="137.783" style="fill:rgb(255,251,252);"/>
            </g>
        </g>
    </g>
</svg>
